<svg width="1308" height="157" viewBox="0 0 1308 157" fill="none" xmlns="http://www.w3.org/2000/svg">
<g opacity="0.5" clip-path="url(#clip0_10123_371)">
<path d="M1308 0H0V157H1308V0Z" fill="black"/>
<path d="M-654 98.125C-654 98.125 -490.5 58.875 -327 58.875C-163.5 58.875 -1.57356e-05 98.125 -1.57356e-05 98.125C-1.57356e-05 98.125 163.5 137.375 327 137.375C490.5 137.375 654 98.125 654 98.125C654 98.125 817.5 58.875 981 58.875C1144.5 58.875 1308 98.125 1308 98.125C1308 98.125 1471.5 137.375 1635 137.375C1798.5 137.375 1962 98.125 1962 98.125" stroke="#222222" stroke-width="2.5"/>
<path d="M-654 58.875C-654 58.875 -490.5 19.625 -327 19.625C-163.5 19.625 -1.57356e-05 58.875 -1.57356e-05 58.875C-1.57356e-05 58.875 163.5 98.125 327 98.125C490.5 98.125 654 58.875 654 58.875C654 58.875 817.5 19.625 981 19.625C1144.5 19.625 1308 58.875 1308 58.875C1308 58.875 1471.5 98.125 1635 98.125C1798.5 98.125 1962 58.875 1962 58.875" stroke="#222222" stroke-width="2.5"/>
<path d="M-654 137.375C-654 137.375 -490.5 98.125 -327 98.125C-163.5 98.125 -1.57356e-05 137.375 -1.57356e-05 137.375C-1.57356e-05 137.375 163.5 176.625 327 176.625C490.5 176.625 654 137.375 654 137.375C654 137.375 817.5 98.125 981 98.125C1144.5 98.125 1308 137.375 1308 137.375C1308 137.375 1471.5 176.625 1635 176.625C1798.5 176.625 1962 137.375 1962 137.375" stroke="#222222" stroke-width="2.5"/>
<path d="M-654 19.625C-654 19.625 -490.5 -19.625 -327 -19.625C-163.5 -19.625 -1.57356e-05 19.625 -1.57356e-05 19.625C-1.57356e-05 19.625 163.5 58.875 327 58.875C490.5 58.875 654 19.625 654 19.625C654 19.625 817.5 -19.625 981 -19.625C1144.5 -19.625 1308 19.625 1308 19.625C1308 19.625 1471.5 58.875 1635 58.875C1798.5 58.875 1962 19.625 1962 19.625" stroke="#222222" stroke-width="2.5"/>
<path d="M-654 -19.625C-654 -19.625 -490.5 -58.875 -327 -58.875C-163.5 -58.875 -1.57356e-05 -19.625 -1.57356e-05 -19.625C-1.57356e-05 -19.625 163.5 19.625 327 19.625C490.5 19.625 654 -19.625 654 -19.625C654 -19.625 817.5 -58.875 981 -58.875C1144.5 -58.875 1308 -19.625 1308 -19.625C1308 -19.625 1471.5 19.625 1635 19.625C1798.5 19.625 1962 -19.625 1962 -19.625" stroke="#222222" stroke-width="2.5"/>
<path d="M-654 176.625C-654 176.625 -490.5 137.375 -327 137.375C-163.5 137.375 -1.57356e-05 176.625 -1.57356e-05 176.625C-1.57356e-05 176.625 163.5 215.875 327 215.875C490.5 215.875 654 176.625 654 176.625C654 176.625 817.5 137.375 981 137.375C1144.5 137.375 1308 176.625 1308 176.625C1308 176.625 1471.5 215.875 1635 215.875C1798.5 215.875 1962 176.625 1962 176.625" stroke="#222222" stroke-width="2.5"/>
</g>
<defs>
<clipPath id="clip0_10123_371">
<rect width="1308" height="157" fill="white"/>
</clipPath>
</defs>
</svg>
